<svg id="Layer_1" data-name="Layer 1" xmlns="http://www.w3.org/2000/svg" xmlns:xlink="http://www.w3.org/1999/xlink" viewBox="0 0 834.7 243.96"><defs><style>.cls-1{fill:url(#White_Black_17);}.cls-2{fill:url(#White_Black_17-2);}.cls-3{fill:url(#White_Black_17-3);}.cls-4{fill:url(#White_Black_17-4);}.cls-5{fill:url(#White_Black_17-5);}.cls-6{fill:url(#White_Black_17-6);}.cls-7{fill:url(#White_Black_17-7);}.cls-8{fill:url(#radial-gradient);}.cls-9{fill:#8c170e;}</style><linearGradient id="White_Black_17" x1="73.99" y1="219.93" x2="73.99" y2="219.93" gradientUnits="userSpaceOnUse"><stop offset="0" stop-color="#232366"/><stop offset="1" stop-color="#842d84"/></linearGradient><linearGradient id="White_Black_17-2" x1="209.77" y1="248.05" x2="209.77" y2="248.05" xlink:href="#White_Black_17"/><linearGradient id="White_Black_17-3" x1="53.49" y1="186.65" x2="53.49" y2="248.39" xlink:href="#White_Black_17"/><linearGradient id="White_Black_17-4" x1="223.68" y1="189.15" x2="223.68" y2="252.09" xlink:href="#White_Black_17"/><linearGradient id="White_Black_17-5" x1="115.67" y1="149.43" x2="115.67" y2="211.17" xlink:href="#White_Black_17"/><linearGradient id="White_Black_17-6" x1="227.74" y1="222.43" x2="227.74" y2="222.43" xlink:href="#White_Black_17"/><linearGradient id="White_Black_17-7" x1="139.23" y1="186.65" x2="139.23" y2="248.39" xlink:href="#White_Black_17"/><radialGradient id="radial-gradient" cx="144.21" cy="196.56" r="51.28" gradientUnits="userSpaceOnUse"><stop offset="0" stop-color="#fff"/><stop offset="0.15" stop-color="#fff" stop-opacity="0.99"/><stop offset="0.29" stop-color="#fff" stop-opacity="0.94"/><stop offset="0.43" stop-color="#fff" stop-opacity="0.87"/><stop offset="0.56" stop-color="#fff" stop-opacity="0.76"/><stop offset="0.7" stop-color="#fff" stop-opacity="0.63"/><stop offset="0.83" stop-color="#fff" stop-opacity="0.46"/><stop offset="0.96" stop-color="#fff" stop-opacity="0.27"/><stop offset="1" stop-color="#fff" stop-opacity="0.2"/></radialGradient></defs><title>Hourai Teahouse Final</title><path class="cls-1" d="M74,219.93" transform="translate(-23.63 -37.22)"/><path class="cls-2" d="M209.77,248.05" transform="translate(-23.63 -37.22)"/><path class="cls-3" d="M65.55,188.68c-.84-1.13-1.59-2.08-2.19-2.81-4.47,2.55-8.89,1.54-13.28-1.56a16.66,16.66,0,0,1-6.56-9.22c-1.55-5.92-1.72-11.28-.16-15.94.2-.58.32-1,.38-1.2,2.61-7.58,5.17-17.61,7-24.27,6-22.46,8.32-25.23,7.34-32.66a54.69,54.69,0,0,0-2.5-10.16,48.24,48.24,0,0,0-5.78-11.09L47.11,82.9,29.77,80.08l.16,3a26,26,0,0,1,11.22,7.84C47.43,98.37,47,104.62,47,104.62l-9.06,25.63S27.92,154,27,156.54a97.59,97.59,0,0,0-2.88,13.85,92.83,92.83,0,0,0-.45,11.4A69.2,69.2,0,0,0,26,191.22q1.54,3.51,3,7c2.81,5.16,10.62,17.86,11.72,19.06l7.5,8.59c19.89,18.77,28.18,20.38,32,18.12C87.82,239.56,81,209.5,65.55,188.68Z" transform="translate(-23.63 -37.22)"/><path class="cls-4" d="M181.92,93.64a6.89,6.89,0,0,1-1.68-.59l2.53,20.61,1.08,7.51,3-1.87c2.65-1.67,20.93-26.92,22.34-30,1-3,4.26-11.57,5.3-13.23a42.42,42.42,0,0,1,3.29-4.58c2.67-3.08,8.75-6.52,14.84-5.31,4.12.82,7.09,3.1,10.94,7.81A114.65,114.65,0,0,1,252,87a79.57,79.57,0,0,1,3.91,9.53,50.19,50.19,0,0,1,1.88,10.31c.53,4.85,1.11,11.4,1.41,19.37-1.81,10.86-5.38,19.17-8.59,23.28a51.9,51.9,0,0,1-10.16,10.16h0C233.89,164.09,214,181,214,181l-3.91,9.39,4.53,19.53,4.06,5.16,10.16,6.56a50,50,0,0,1-1.82-5.7,51.85,51.85,0,0,1-1-20.23,35,35,0,0,1,4.84-12.19c2.53-3.92,15.62-17.29,18.12-20l8.59-10.16a63.85,63.85,0,0,0,9.53-28c-.31-12.87-3.28-30.31-3.28-30.31a106.76,106.76,0,0,0-4.92-12.81,49.72,49.72,0,0,0-10.39-15.08,25.31,25.31,0,0,0-10.94-7.58c-10.18-3.53-19.1,1-20.78,1.88a28,28,0,0,0-10.47,10.16,69.51,69.51,0,0,1-7.58,11.89C198.15,84.27,186.79,94.66,181.92,93.64Z" transform="translate(-23.63 -37.22)"/><ellipse class="cls-5" cx="115.67" cy="232.01" rx="72.34" ry="11.95"/><path class="cls-6" d="M227.74,222.43" transform="translate(-23.63 -37.22)"/><path class="cls-7" d="M217.28,187.74l-2.34-5.62c-4.52-8.07-8.58-14.3-11.41-18.44-4.55-6.67-18.8-47.08-20.78-55.16l-.56-14.84L182.13,92c0-3.59,3-10.94,3-10.94.62-1.5,2.75-6.14,7.72-8.26a13.05,13.05,0,0,1,3.69-1,24.94,24.94,0,0,0-11.71-9.07,25.25,25.25,0,0,0-17.8.32c-6.67-2.6-19-7.81-20-7.81-2,0,0-3,0-3L149.16,51H144V45.24c-1-1.26-4-2.53-5-3.79-1,1.26-4,2.53-5,3.79V51h-4.7l1.7,1.27s2,3,0,3c-1,0-13.09,5.21-19.76,7.81a24.57,24.57,0,0,0-17.58-.32A24.94,24.94,0,0,0,82,71.8a13.05,13.05,0,0,1,3.69,1c5,2.12,7.1,6.76,7.72,8.26,0,0,3,7.34,3,10.94l-.07,1.72-.56,14.84c-2,8.07-16.23,48.49-20.78,55.16C72.1,167.82,68,174,63.52,182.12l-2.34,5.63-1.72,19.38,1.72,14.38s2.66,9.84,6.09,16.56a47.19,47.19,0,0,0,3.91,7.5c.72,1.13,1.46,2.17,2.19,3.13,1,1.19,2.43,2.92,4.22,5,.85,1,2.41,2.85,3.13,3.59a50,50,0,0,0,9.38,7.66c3.44,3.28,12.19,7,12.19,7s6.72,4.06,10.94,4.38a62.14,62.14,0,0,0,14.85,2.5l3,.31c2.72.27,5,.47,8,.62,3-.15,5.49-.36,8.2-.62,1-.1,2.11-.2,3.09-.31a62.42,62.42,0,0,0,14.93-2.5c4.22-.31,11-4.37,11-4.37s8.76-3.75,12.19-7a50,50,0,0,0,9.38-7.66c.71-.75,2.28-2.6,3.13-3.59,1.78-2.08,3.23-3.81,4.22-5,.73-1,1.46-2,2.19-3.12a47.2,47.2,0,0,0,3.91-7.5c3.44-6.72,6.09-16.56,6.09-16.56L219,207.12Z" transform="translate(-23.63 -37.22)"/><path class="cls-8" d="M143.77,145.06l-1.31,0q-2.55.06-5,.37a43.39,43.39,0,1,1-44.28,60.62,51.5,51.5,0,1,0,50.62-61Z" transform="translate(-23.63 -37.22)"/><path class="cls-9" d="M374.5,174.22V131.74H339.35v42.48q0,10.26,11.72,10.25v1.46H304.19v-1.46q11.72,0,11.72-10.25V98q0-10.25-11.72-10.25V86.33h29.3q5.86,0,5.86,11.72v32.23H374.5V98q0-10.25-11.72-10.25V86.33h46.88v1.46q-11.72,0-11.72,10.25v76.17q0,10.26,11.72,10.25v1.46H362.78v-1.46Q374.5,184.47,374.5,174.22Z" transform="translate(-23.63 -37.22)"/><path class="cls-9" d="M479.34,93.39a137.52,137.52,0,0,0,12.9-12.75q2.4-3.3,3.3-4.65a74.47,74.47,0,0,1-15,18.9l2.25,3,.15.6.45.45a65,65,0,0,1,8.25,24,7,7,0,0,0,.15,1.65,4.37,4.37,0,0,0,.15,1.5q.3,4.5.3,6.6a72,72,0,0,1-.45,8,5.21,5.21,0,0,0-.15,1.5,3.61,3.61,0,0,1-.15,1,3.36,3.36,0,0,0-.15.68,60.19,60.19,0,0,1-8.55,23.85l-.75.75a.87.87,0,0,1-.15.6,32.33,32.33,0,0,1-5.25,6.3,3,3,0,0,0-.37.52,2.86,2.86,0,0,1-.37.52c-.3,0-.55.2-.75.6q-10.05,9.15-21.75,9.15-12.75,0-22.65-9.9l-.3-.45a2.43,2.43,0,0,0-.6-.45l-.75-.75q-.3-.3-2.1-2.55t-2.7-3.6a2.8,2.8,0,0,1-.15-.9,4.24,4.24,0,0,1-.6-.45,63.15,63.15,0,0,1-8.7-27.6,2.79,2.79,0,0,1-.3-1.5v-1q0-.75-.08-2.18c-.05-.95-.08-1.62-.08-2,0-.2,0-.62.08-1.27s.08-1.17.08-1.58v-2.7a64.73,64.73,0,0,1,8.25-27.3l.45-.75.3-.6a54.44,54.44,0,0,1,4.35-6.15,1.08,1.08,0,0,0,.45-.75,3.48,3.48,0,0,0,.9-.6q10.2-11.55,24.15-11.55,12.45,0,23.25,10.5a2.35,2.35,0,0,0,.6.9,1.65,1.65,0,0,1,.6.75A7.23,7.23,0,0,1,479.34,93.39Zm-49.2,37.95v1.35h2.1l6-14.4-6.15-6.3-.75,3.9.9-2.25,1.8,1.95-3,7.35-.6-.15a2.5,2.5,0,0,1-.15,1.2l.3.15-.3.75v3l4.65-11.55,1.65,1.8L431,131.34Zm1.5,19.65.45,3,6-5.7-6-14.7h-2v1.05h.75l5.55,13.5-1.5,1.5-4.65-10.8a26.21,26.21,0,0,0,.15,3.15v.15a3.7,3.7,0,0,0,.15,1.35l.3-.15,3.15,7.05-2,1.95Zm2.25-40.2-1.35-1.35a4.79,4.79,0,0,1-.3,1.35l6.9,6.9,14.4-6.15v-6.15a4.28,4.28,0,0,0-1.2-.45v2l-15.75,6.6-2-1.95,16.05-6.9a3.46,3.46,0,0,1-1.35-.45l-6,2.7-.75-2.25,3.75-1.5a4,4,0,0,0-1-.75l-12.15,4.8a3.46,3.46,0,0,1-.15.67,3.55,3.55,0,0,0-.15,1l8.7-3.9,1,2.4Zm7.65,50.55-8.7-3.45a7.83,7.83,0,0,1,.6,1.5l19.8,8.1V155l-14.4-6-6.45,6.3a5,5,0,0,1,.3,1.2l.9-.9,8.85,3.45Zm-8.7-27.9,5.85,14.1,2.25-2.25-4.65-11.85Zm6.3-14.55-6,13.8h3.3l4.65-11.7Zm2.1-21.3-5.7,2.4q-.3,1.05-1.05,3t-1,3l10.8-4.5A9.33,9.33,0,0,1,441.24,97.59Zm12.9,76.35,16.2-6.6q.3-.45,2.25-6.15l-18.45,7.65-20.4-8.4q.3,1.2,1.05,3.3t1,2.85Zm-11.4-15.6-8.55-3.45,2.1-2,7.5,3Zm-2.4-66-1.5.75q-1.05,1.8-3,5.7l5.1-2.1A11.48,11.48,0,0,1,440.34,92.34Zm13.8,87.3,12.45-5.25q1.95-3.3,3.3-5.85L454.14,175l-17.7-7.35a21.31,21.31,0,0,0,3.15,5.85Zm-10-24.45-7.2-2.85,1.8-1.95,6.15,2.55Zm9.75-5.1,11.85-4.95,4.95-11.85-4.95-11.7v-.15l-.15-.15-11.7-4.8-12.15,5L437,133.29l4.65,11.85Zm-14.7-34.2-1.8-1.8,15-6.3v2.55Zm14.7,33.6-11.25-4.65-4.8-11.55,4.8-11.25,11.25-4.65L465.09,122l4.8,11.25-4.8,11.55Zm-10.65-5.55,10.65,4.5,10.5-4.5,4.5-10.65-4.5-10.65-10.5-4.35-10.65,4.35-4.5,10.65Zm-3.9,4.35,13.95,5.7v-3l-11.85-4.8Zm2.4-27.9,11.85-4.8v-3l-13.8,5.7Zm-1.35-30a3.61,3.61,0,0,1-.45,1.2l.45-.15a1.16,1.16,0,0,1,.15-.45,1.34,1.34,0,0,0,.15-.6v-.3A.26.26,0,0,1,440.34,90.39Zm1,84.9-1-.3q.15.15.75.9c0,.1.1.25.3.45Zm25.05-42a12.28,12.28,0,0,1-3.75,9,12.11,12.11,0,0,1-8.85,3.75,12.8,12.8,0,0,1-12.75-12.75,12.08,12.08,0,0,1,3.67-9,12.46,12.46,0,0,1,9.08-3.6,12.28,12.28,0,0,1,8.92,3.6A12.08,12.08,0,0,1,466.44,133.29Zm-23.25,42.9-1.5-.75v1.2a7.69,7.69,0,0,0,1.5,1.65Zm-1.35-42.9a10.73,10.73,0,0,0,3.6,8.25,11.43,11.43,0,0,0,8.4,3.45,11.78,11.78,0,0,0,11.7-11.7,11.44,11.44,0,0,0-3.45-8.4,10.44,10.44,0,0,0-8.25-3.6,10.89,10.89,0,0,0-8.4,3.6A11.51,11.51,0,0,0,441.84,133.29Zm23.4,0a11.09,11.09,0,0,1-3.3,8,11.38,11.38,0,1,1-8.1-19.42,11.27,11.27,0,0,1,11.4,11.4Zm-21.9,26.4,8.7,3.45v2.7l-9.45-3.9Zm9.3-26.55-9.3-2.55a14.78,14.78,0,0,0-.15,2.55Zm0,.15h-9.45a16.42,16.42,0,0,0,.15,2.55Zm-7.8,43.65-1.5-.6v2.25a12.1,12.1,0,0,0,1.5,1.35Zm8-44.25-8.25-4.5a5.25,5.25,0,0,0-.75,2Zm0,1.2-9,2.25a14.77,14.77,0,0,0,.75,2.4Zm-8,22.65,7.2,3v2.4l-8.1-3.3Zm9.3-69.6-9.9,4a19.17,19.17,0,0,0-.15,2.85,4.5,4.5,0,0,0,.08.75,2.6,2.6,0,0,0,.22.75l9.75-4,16.2,7a42.08,42.08,0,0,0-3-6Zm-9.3,2.7v-2.1a13.55,13.55,0,0,0-.6,2.25Zm26.25,10.2a.13.13,0,0,1-.15-.15l-.15-.3-16.65-7.05-9.6,3.75a23.68,23.68,0,0,0,2.85,4.2l6.75-2.7,12.3,5.1A30.27,30.27,0,0,0,471.09,99.84Zm-18.3,32.55-6.45-6.6a11.11,11.11,0,0,0-.83,1c-.35.45-.58.73-.67.82Zm0,1.65-8,4.8q1.2,1.5,1.5,1.8Zm-7.5-44.4,1.35-.6V84.69l-.6.15a15.21,15.21,0,0,0-.75,1.65Zm.75,63.9,6,2.4v2.55l-6.75-2.85Zm.6,24-1.35-.6v3.45l1.35.9Zm6.45-45.6-4.65-8a5.92,5.92,0,0,0-1.8,1.65Zm0,2.55-6.45,6.3a3.46,3.46,0,0,0,1.8,1.5Zm-6-45.6,1.35-.6v-4.5l-1.35.75Zm1.35,89.4-1.35-.6v3.75a3.11,3.11,0,0,0,1.35.9Zm3.9-77.7v2.55l-.6.15q1.35.6,1.8.75v-5.4l-5.4,2.4a2.79,2.79,0,0,0,.53.38,1.34,1.34,0,0,1,.52.52Zm1,31.35-2.55-9a2.61,2.61,0,0,1-1.12.52,2.9,2.9,0,0,0-1,.38Zm0,2.7-4.65,7.8a6.81,6.81,0,0,0,2.1,1Zm-4.5-46.5,1.35-.6V83.19l-.3.3-1.05.15Zm1.35,90.9-1.35-.75v4.2a2.63,2.63,0,0,0,1.2.3l.15.15Zm.3-91.65,1.5-.75v-4.2l-1.5.45Zm1.5,92.25-1.5-.6v4a2.89,2.89,0,0,1,.9.15,2.4,2.4,0,0,0,.6.15Zm1.65-47.7v-9.3a11.08,11.08,0,0,0-2.25.15Zm0,2.7-2.25,8.85a9.21,9.21,0,0,0,2.25.3Zm-1.35-48.15,1.5-.45v-3.9h-1l-.45.15Zm1.5,93.9-1.5-.6v3.6a3.3,3.3,0,0,0,1,.15h.45Zm.3-94.35,1.5.45v-4.2l-1.5-.15Zm0,45.9,2.4-9a13,13,0,0,0-2.4-.3Zm0,2.7v9a13.5,13.5,0,0,0,2.4-.15Zm0,19.35,14-5.7-2.25-2.1-11.7,4.8Zm1.5,25.8-1.5.6v3a2.8,2.8,0,0,0,1.5-.3Zm10.2-59.1,2.25-2.4-13.8-5.7v3.3Zm-10.2-17.4v-2.7l7.8,3.45a2.28,2.28,0,0,0,.9-.3l.9-.45-10.8-4.65v5.85a3.29,3.29,0,0,1,.52.08,3.32,3.32,0,0,0,.67.08v-.15l1.2.3a4.89,4.89,0,0,0,1.2.15h1.5Zm13.2,14.4,5.7-5.7c0-.7-.15-1.1-.45-1.2l-13.5-5.4h-2.4l15,6.15-1.8,1.95L455.64,107v-1.65h-1.2v6.3Zm-14.4,14.25,4.65-8-2.25-.9Zm0,2.7,2.4,8.85a9.7,9.7,0,0,0,2.25-1.2Zm19.35,21,.3.3.3-1.5-5.55-5.4-14.4,6v12.6L473,160a1.89,1.89,0,0,0,.15-.82,1.87,1.87,0,0,1,.15-.83l-18,7.5v-2.55Zm-18.9-23.7,6.3-6.15a14.32,14.32,0,0,0-1.8-1.65Zm0,2.55,4.5,7.65a5.27,5.27,0,0,0,1.8-1.35Zm.15-2.1,7.8-4.5a9.47,9.47,0,0,0-1.2-2Zm0,1.65,6.6,6.6a9.36,9.36,0,0,0,1.2-2Zm9-3.75-.9-2.1-7.8,4.5Zm-8.7,2.85h9a13.43,13.43,0,0,0-.3-2.55Zm0,.15,8.7,2.55a18.08,18.08,0,0,0,.3-2.55Zm7.8,5.1.9-2.4-8.7-2.1Zm-.75,17.25-7,2.85v-2.4l6.3-2.55Zm.45.9.9,2.1-8.4,3.75v-2.7Zm-7.2-48.6,15,6.15-1.8,2-13.2-5.7Zm.3-21.3,1.5.75v-4.2l-1.5-.75Zm1.5,92.4-1.5.6v3.3a.87.87,0,0,0,.6-.15,2.28,2.28,0,0,0,.9-.3Zm.3-91.5,1.35.6v-4.5l-.9-.15-.45-.15Zm1.35,90.75-1.35.75v3.45q1-.45,1.35-.6Zm.45-90,1.35.6V84.84a1.42,1.42,0,0,1-.6-.37,4.34,4.34,0,0,0-.75-.52Zm1.35,89.4-1.35.6v3.3l1.35-.9ZM461.34,89l1.35.6v-3.3l-.6-.6a3.25,3.25,0,0,0-.75-.6Zm1.35,87.9-1.35.6v2.85l.45-.45.9-.9Zm6-26.25,1.65,1.65-6.9,2.85-.75-2.25Zm-5.55-61,1.2.75v-2.1a4.69,4.69,0,0,0-.6-.83,4.46,4.46,0,0,1-.6-.82Zm1.2,86.55-1.2.45v2.25a18.13,18.13,0,0,1,1.2-1.5Zm-.45-20.25,7.2-3,1.8,2-7.95,3.45Zm.75-51.45,9.15,3.6a4,4,0,0,1-.6-1.65l-6.6-2.55A15.79,15.79,0,0,0,464.64,104.49Zm.3-14.1h.15l1.35.6v-.3c-.1,0-.15-.1-.15-.3l-1.35-1.5Zm.6,85.5.15-.3-.3.3-.45.3v.75a2.32,2.32,0,0,1,.45-.6Zm9-43.05-.15-.15L468.84,119l-2.25,2.1,4.8,11.7Zm-5.7,14.85,5.7-13.8h-3.15l-4.8,11.55Zm-1-44.4,5.1,2.1q-.3-1.35-1.2-4.05Q469.74,102.39,467.79,103.29Zm8.85,29.4v-1.2l-2.55-5.85,2.1-1.05.15.45a19.56,19.56,0,0,0-.3-3.15L473.79,116l1.35-1.5a3.3,3.3,0,0,0-.15-.83,3.18,3.18,0,0,1-.15-.82l-5.4,5.4,6,14.4Zm0,2.25v-1h-1.2l-5.85,14.4,5,5.1a1.83,1.83,0,0,1,.15-.68,1.76,1.76,0,0,0,.15-.52l-1-1.35,2.1-5.85.45-3.45-.3.6-2-1.05Zm-.9-11.4-1.95.9-2.7-6.15,1.8-1.65Zm-1.95,18.6,1.8,1-2.7,6.75-1.8-1.65Zm7.65-103.65a8.54,8.54,0,0,1,1-.37,19.36,19.36,0,0,1,2.4-.52,19.73,19.73,0,0,1,3.38-.3A51.79,51.79,0,0,0,481.44,38.49Zm6.75-1.2q8.4-.6,12.3,3.75t3.38,11.32a48.35,48.35,0,0,1-4.28,15.53q2.85-9.3,1.65-15.83a23.21,23.21,0,0,0-4.65-10.73A11.33,11.33,0,0,0,488.19,37.29Zm11.4,30.6a34.15,34.15,0,0,1-4.05,8.1A74.21,74.21,0,0,0,499.59,67.89Z" transform="translate(-23.63 -37.22)"/><path class="cls-9" d="M582.94,136.13V98q0-10.25-11.72-10.25V86.33h24.9v1.46q-11.72,0-11.72,10.25v38.09q0,23.15-6,35.23-7.62,15.31-26.22,15.31-23,0-34.57-13.62-9.38-11.06-9.38-34V98q0-10.25-11.72-10.25V86.33h46.88v1.46q-11.72,0-11.72,10.25v58.59q0,28.56,20.51,28.56,17.72,0,24.9-14.5Q582.94,158.91,582.94,136.13Z" transform="translate(-23.63 -37.22)"/><path class="cls-9" d="M602,86.33h49.8q20.07,0,32,7.62t11.94,22a22.12,22.12,0,0,1-6,15.1q-6,6.74-16.29,10.41l15.92,33.13a26.31,26.31,0,0,0,4.54,7q2.93,2.92,9.08,2.92v1.46H675.19q-5.55,0-10.36-10.84l-14.5-30.18H637.14v29.3q0,10.26,11.72,10.25v1.46H602v-1.46q11.72,0,11.72-10.25V96.73q-.44-8.93-11.72-8.94Zm35.16,1.46v55.66h14.65q20.51,0,20.51-27.83T651.79,87.79Z" transform="translate(-23.63 -37.22)"/><path class="cls-9" d="M760.88,155.18H727.54L721,175.06a14.14,14.14,0,0,0-.82,4.26q0,5.15,10.63,5.15v1.46H706v-1.46q10.4,0,13.62-10l23.8-72.95-1.24-3.81q-3.52-10-13.62-10V86.33h28.27q6.3,0,9.81,10.84l25.2,77.34q3.22,10,13.77,10v1.46H758.73v-1.46q9.52,0,9.52-5a15,15,0,0,0-.88-4.39Zm-.48-1.46-16.18-49.9-16.36,49.9Z" transform="translate(-23.63 -37.22)"/><path class="cls-9" d="M811.46,86.33h46.88v1.46q-11.72,0-11.72,10.25v76.17q0,10.26,11.72,10.25v1.46H811.46v-1.46q11.72,0,11.72-10.25V98q0-10.25-11.72-10.25Z" transform="translate(-23.63 -37.22)"/><path d="M585.13,198.8,583,205.73a25.62,25.62,0,0,0-5.63-1.87,39.11,39.11,0,0,0-5.9-.36v23.94q0,9.36,1.46,14.33h-9.52q1.5-4.48,1.5-14.58V203.5q-4.68.3-6.94.6a33.64,33.64,0,0,0-6.73,1.63l2.32-6.93Z" transform="translate(-23.63 -37.22)"/><path d="M616.29,233.32l-3.57,8.45H590q1.5-4.82,1.5-14.34v-15A60.79,60.79,0,0,0,590,198.8H613.6l-3.3,6.93a19.87,19.87,0,0,0-9.24-2.26q-.61,0-3.06.09v13.89h14.1l-4,6.93a25.47,25.47,0,0,0-10.1-2.23v14.92q7.7-.55,9.45-.85A28.2,28.2,0,0,0,616.29,233.32Z" transform="translate(-23.63 -37.22)"/><path d="M661.18,241.77H650.77a26.65,26.65,0,0,0-1.62-6.82q-.43-1.16-2.9-6.61H630.82q-1.92,5.08-2.38,6.58a25.43,25.43,0,0,0-1.28,6.85H616.56q3.17-3.66,8.24-14.25l14.07-29.36,14.43,30.33A73.07,73.07,0,0,0,661.18,241.77ZM643.85,223l-5.31-12.79L633.1,223Z" transform="translate(-23.63 -37.22)"/><path d="M700.15,241.77h-9.52a32.22,32.22,0,0,0,1.46-8.51V222.52H673.66V228a62,62,0,0,0,1.5,13.76h-9.52a46,46,0,0,0,1.46-12.57V212.26a55,55,0,0,0-1.46-13.46h9.52a42.75,42.75,0,0,0-1.5,10.44v7.93h18.43v-5.58a56.69,56.69,0,0,0-1.46-12.79h9.52a47.43,47.43,0,0,0-1.5,12.39v16A60.49,60.49,0,0,0,700.15,241.77Z" transform="translate(-23.63 -37.22)"/><path d="M750.63,220.35a21.55,21.55,0,0,1-6.23,15.73,21,21,0,0,1-15.62,6.33q-9.77,0-16-6.3t-6.2-16.1a20.73,20.73,0,0,1,6.59-15.75,22.6,22.6,0,0,1,16.08-6.1,20.23,20.23,0,0,1,15.44,6.41A22.18,22.18,0,0,1,750.63,220.35Zm-7,1.25a19.82,19.82,0,0,0-4.07-12.37,14.29,14.29,0,0,0-21.93-1.37,15.52,15.52,0,0,0-3.94,10.88,20.13,20.13,0,0,0,4.1,12.64,14,14,0,0,0,11.62,5.82,13.12,13.12,0,0,0,10.43-4.69A16.23,16.23,0,0,0,743.58,221.6Z" transform="translate(-23.63 -37.22)"/><path d="M793.57,241.77h-7.42v-4.49a29.69,29.69,0,0,1-6.42,3.88,19.66,19.66,0,0,1-7.39,1.25q-8.4,0-11.7-7.2-2.32-5.07-2.32-15,0-1.8.08-4.94t.08-4.36A50.68,50.68,0,0,0,757,198.8h9.52a45.52,45.52,0,0,0-1.5,12V221.4q0,15.8,10.53,15.79,9.95,0,9.95-12.62V210.85a49.44,49.44,0,0,0-1.46-12h9.52a38,38,0,0,0-1.5,11.32V224.5q0,7.6.06,8.7A31.72,31.72,0,0,0,793.57,241.77Z" transform="translate(-23.63 -37.22)"/><path d="M824.21,229.91a11.13,11.13,0,0,1-4.64,9.45,17.13,17.13,0,0,1-10.38,3,18.23,18.23,0,0,1-8.06-2V232.1a17.58,17.58,0,0,0,3.64,3.66,8.58,8.58,0,0,0,4.89,1.43,7.8,7.8,0,0,0,5.2-1.83,6.06,6.06,0,0,0,2.32-4.88q0-3.08-4.1-6.25l-7.64-5.73q-4.1-3.84-4.1-8.54a10.62,10.62,0,0,1,4.12-8.78,14.64,14.64,0,0,1,9.43-3,19.65,19.65,0,0,1,7.6,1.59v7.69a28.92,28.92,0,0,0-3.55-2.93,8.5,8.5,0,0,0-4.43-1.13,6.29,6.29,0,0,0-4.34,1.52,5.26,5.26,0,0,0-1.8,4.15q0,2.93,4.1,6.07l7.64,5.82A12.26,12.26,0,0,1,824.21,229.91Z" transform="translate(-23.63 -37.22)"/><path d="M858,233.32l-3.57,8.45H831.65q1.5-4.82,1.5-14.34v-15a60.79,60.79,0,0,0-1.5-13.61H855.3l-3.3,6.93a19.87,19.87,0,0,0-9.24-2.26q-.61,0-3.06.09v13.89h14.1l-4,6.93a25.47,25.47,0,0,0-10.1-2.23v14.92q7.7-.55,9.45-.85A28.2,28.2,0,0,0,858,233.32Z" transform="translate(-23.63 -37.22)"/></svg>