<svg xmlns="http://www.w3.org/2000/svg" xmlns:xlink="http://www.w3.org/1999/xlink" viewBox="0 0 876.55 302.64"><defs><style>.cls-1{fill:url(#linear-gradient);}.cls-2{fill:#fff;}.cls-3{fill:#b7202c;}.cls-4{fill:url(#linear-gradient-2);}.cls-5{fill:#b7202d;}.cls-6{stroke:#fff;stroke-miterlimit:10;stroke-width:3px;fill:url(#linear-gradient-3);}</style><linearGradient id="linear-gradient" x1="75.65" y1="20.25" x2="226.99" y2="282.39" gradientUnits="userSpaceOnUse"><stop offset="0" stop-color="#2e3033"/><stop offset="0.46" stop-color="#37393c"/><stop offset="1" stop-color="#231f20"/></linearGradient><linearGradient id="linear-gradient-2" x1="176.18" y1="543.32" x2="4.54" y2="543.32" gradientUnits="userSpaceOnUse"><stop offset="0.52" stop-color="#b02024" stop-opacity="0"/><stop offset="0.54" stop-color="#ae1f22" stop-opacity="0.06"/><stop offset="0.7" stop-color="#a21717" stop-opacity="0.46"/><stop offset="0.83" stop-color="#99120f" stop-opacity="0.75"/><stop offset="0.94" stop-color="#930e0a" stop-opacity="0.93"/><stop offset="1" stop-color="#910d08"/></linearGradient><linearGradient id="linear-gradient-3" x1="385.32" y1="374.09" x2="630.15" y2="798.15" gradientUnits="userSpaceOnUse"><stop offset="0" stop-color="#632212"/><stop offset="1" stop-color="#2d0013"/></linearGradient></defs><title>Fantasy Crescendo Logo</title><g id="Layer_1" data-name="Layer 1"><circle class="cls-1" cx="151.32" cy="151.32" r="151.32"/><circle class="cls-2" cx="151.32" cy="151.32" r="146.25"/><path class="cls-3" d="M151.32,689.57a146.25,146.25,0,0,1,0-292.5Z" transform="translate(0 -392)"/><circle class="cls-3" cx="146.44" cy="78.6" r="73.12"/><circle class="cls-2" cx="156.19" cy="224.75" r="73.13"/><path class="cls-4" d="M45.54,544.54A146.79,146.79,0,0,1,176.18,398.65a146.79,146.79,0,1,0-8.72,290.57A146.81,146.81,0,0,1,45.54,544.54Z" transform="translate(0 -392)"/></g><g id="Layer_2" data-name="Layer 2"><path class="cls-2" d="M153.72,471.47h17.7c10.8,0,12.45-5.4,12.75-12.9h6.9v36h-6.9c-.3-7.5-1.95-12.9-12.75-12.9h-17.7v32.85c0,8.55,2.25,9.75,12.6,10.5v6.3h-51V525c9.6-.75,11.85-2,11.85-10.5v-71.4c0-8.7-2.25-9.75-11.85-10.5v-6.3H201l8.85,27.15-5.55,2.4c-9.45-13.35-21-19.35-39.6-19.35h-6.45a4.25,4.25,0,0,0-4.5,4.5Z" transform="translate(0 -392)"/><path class="cls-5" d="M192.47,593.62l-6.15,1.8c-6.9-14.25-18.45-24.75-32.1-24.75-20.1,0-26.4,19-26.4,45.15s6.3,45,26.4,45c16.8,0,27.75-12.3,31.65-25.35l9.9,3.3c-6.9,19.35-20.4,31.8-44.25,31.8-31.2,0-52.2-21.6-52.2-54.75s21-54.75,52.2-54.75c11.25,0,18.3,2.7,24.3,6.75l2.1-4.5h7.2Z" transform="translate(0 -392)"/><path class="cls-6" d="M238.43,529.37c-7-.58-9.77-2-7.67-7.21l4-10.47h29.19L268,522.16c2.09,5.35.12,6.63-6.74,7.21v4.88h37v-4.88c-4.19-.58-6.51-2.09-8.6-7.56l-26.63-69H248.89l-26.63,69.07c-2,5.35-4.42,6.86-9.07,7.44v4.88h25.23Zm10.81-55.23,11.51,29.65h-23Zm77.9,60.12H299.7v-4.88c7.44-.58,9.19-1.51,9.19-8.14V465.88c0-6.74-1.74-7.56-9.19-8.14v-4.88h31.51l30.93,48.37V465.88c0-6.74-1.63-7.56-9.19-8.14v-4.88h27.21v4.88c-7.44.58-9.07,1.4-9.07,8.14v68.37H358.66l-40.81-64.07v51c0,6.63,1.86,7.56,9.3,8.14Zm57.55-58.49-4.19-1.86,7.56-23.6h5a3.64,3.64,0,0,0,3.84,2.56h50.47a3.78,3.78,0,0,0,4-2.56h4.88l7.33,23.6-4.19,1.86c-6.28-10.47-16.16-15-23.72-15a3.3,3.3,0,0,0-3.49,3.49v57c0,6.63,1.74,7.56,9.19,8.14v4.88h-39v-4.88c7.44-.58,9.19-1.51,9.19-8.14v-57a3.24,3.24,0,0,0-3.49-3.49C400.63,460.77,391,465.3,384.7,475.77Zm92.55,53.61c-7-.58-9.77-2-7.67-7.21l4-10.47h29.19l4.07,10.47c2.09,5.35.12,6.63-6.74,7.21v4.88h37v-4.88c-4.19-.58-6.51-2.09-8.6-7.56l-26.63-69H487.72l-26.63,69.07c-2,5.35-4.42,6.86-9.07,7.44v4.88h25.23Zm10.81-55.23,11.51,29.65h-23ZM590.62,516.7c0-8.72-8.72-12-18.72-15.12-13.6-4.3-29.77-8.49-29.77-26.63,0-15.46,14.07-23.84,30.12-23.84,10,0,16.86,2.21,21.74,5.23l1.63-3.49h5.58l5.7,23.49-4.3,1.16c-5.35-11.63-15.58-19-28.49-19-8.14,0-12.91,4.3-12.91,10.35,0,7.67,8.37,10.35,18.26,13.14,14.07,4,31,8,31,26.63,0,16.74-15.23,27.33-34.42,27.33-9.42,0-17.67-2.21-23.37-5.47L551,534.26h-5.58L539.11,508l4.53-1.28c5.7,11.86,17,21.86,31.4,21.86C583.88,528.56,590.62,523.44,590.62,516.7Zm28-50.81c-3.49-6-4.65-7.56-9.19-8.14v-4.88h37.68v4.88c-7,.58-8.14,3.72-5,9.19l14,24,14.3-24.19c3.49-5.93,1.51-8.37-5.12-9v-4.88h24.65v4.88c-4.42.58-5.58,2.33-9.07,8.14l-20.7,35v20.35c0,6.63,1.74,7.56,9.19,8.14v4.88h-39v-4.88c7.44-.58,9.19-1.51,9.19-8.14V501.58ZM282.52,659.57l-17.79-27.09C278,630.38,286,624.34,286,611.66c0-16.74-14.07-21.51-38.26-21.51H207.64V595c7.67.58,9.19,1.39,9.19,8.14v55.35c0,6.63-1.74,7.56-9.19,8.14v4.88h39v-4.88c-7.44-.58-9.19-1.51-9.19-8.14V633.76h6l24.19,37.79h25.81v-4.88C288.22,666.08,285.66,664.45,282.52,659.57Zm-35.12-33.72h-10v-24.3a3.29,3.29,0,0,1,3.49-3.49h6.86c10,0,16.16,2.79,16.16,13.6S257.76,625.85,247.41,625.85ZM368.91,645.5l4.19,2.44-11.4,23.6H295v-4.88c7.44-.58,9.19-1.51,9.19-8.14V603.17c0-6.74-1.74-7.56-9.19-8.14v-4.88h66.39l6.86,21-4.3,1.86c-7.33-10.35-16.28-15-30.7-15h-5a3.29,3.29,0,0,0-3.49,3.49v23.6h13.72c8.37,0,9.65-4.19,9.88-10h5.35v27.91h-5.35c-.23-5.81-1.51-10-9.88-10H324.73v27.09a3.3,3.3,0,0,0,3.49,3.49h6.16C349,663.64,361.12,655.62,368.91,645.5Zm78.72.46c0,16.74-15.23,27.33-34.42,27.33-9.42,0-17.67-2.21-23.37-5.47l-1.74,3.72h-5.58l-6.28-26.28,4.53-1.28c5.7,11.86,17,21.86,31.4,21.86,8.84,0,15.58-5.12,15.58-11.86,0-8.72-8.72-12-18.72-15.12-13.6-4.3-29.77-8.49-29.77-26.63,0-15.46,14.07-23.84,30.12-23.84,10,0,16.86,2.21,21.74,5.23l1.63-3.49h5.58l5.7,23.49-4.3,1.16c-5.35-11.63-15.58-19-28.49-19-8.14,0-12.91,4.3-12.91,10.35,0,7.67,8.37,10.35,18.26,13.14C430.65,623.29,447.63,627.36,447.63,646Zm74.41.12,7.67,2.56c-5.35,15-15.81,24.65-34.3,24.65-24.19,0-40.47-16.74-40.47-42.44s16.28-42.44,40.47-42.44c8.72,0,14.19,2.09,18.84,5.23l1.63-3.49h5.58l5.7,23.49-4.77,1.4c-5.35-11-14.3-19.19-24.88-19.19-15.58,0-20.47,14.77-20.47,35s4.88,34.88,20.47,34.88C510.53,665.73,519,656.2,522,646.08Zm86.27-.58,4.19,2.44-11.4,23.6H534.37v-4.88c7.44-.58,9.19-1.51,9.19-8.14V603.17c0-6.74-1.74-7.56-9.19-8.14v-4.88h66.39l6.86,21-4.3,1.86c-7.33-10.35-16.28-15-30.7-15h-5a3.29,3.29,0,0,0-3.49,3.49v23.6h13.72c8.37,0,9.65-4.19,9.88-10h5.35v27.91h-5.35c-.23-5.81-1.51-10-9.88-10H564.13v27.09a3.3,3.3,0,0,0,3.49,3.49h6.16C588.43,663.64,600.53,655.62,608.32,645.5Zm60-55.35h27.21V595c-7.44.58-9.07,1.39-9.07,8.14v68.37H674L633.2,607.48v51c0,6.63,1.86,7.56,9.3,8.14v4.88H615.06v-4.88c7.44-.58,9.19-1.51,9.19-8.14V603.17c0-6.74-1.74-7.56-9.19-8.14v-4.88h31.51l30.93,48.37V603.17c0-6.74-1.63-7.56-9.19-8.14Zm70,0H699.47V595c7.44.58,9.19,1.39,9.19,8.14v55.35c0,6.63-1.74,7.56-9.19,8.14v4.88h38.6c29.3,0,45.23-15.12,45.23-40.7S767.73,590.15,738.31,590.15Zm-.23,73.49h-5.35a3.3,3.3,0,0,1-3.49-3.49v-58.6a3.29,3.29,0,0,1,3.49-3.49h5.58c14.53,0,22.91,9,22.91,32.79S752.61,663.64,738.08,663.64Zm94.76-75.23c-26.51,0-42.33,16.74-42.33,42.44s15.81,42.44,42.33,42.44S875,656.55,875,630.85,859.35,588.41,832.84,588.41Zm0,77.33c-15.81,0-20.23-14.65-20.23-34.88s4.42-35,20.23-35,20.12,14.77,20.12,35S848.65,665.73,832.84,665.73Z" transform="translate(0 -392)"/></g></svg>