<?xml version="1.0" encoding="UTF-8" standalone="no"?>
<svg
   xmlns:dc="http://purl.org/dc/elements/1.1/"
   xmlns:cc="http://creativecommons.org/ns#"
   xmlns:rdf="http://www.w3.org/1999/02/22-rdf-syntax-ns#"
   xmlns:svg="http://www.w3.org/2000/svg"
   xmlns="http://www.w3.org/2000/svg"
   xmlns:xlink="http://www.w3.org/1999/xlink"
   xmlns:sodipodi="http://sodipodi.sourceforge.net/DTD/sodipodi-0.dtd"
   xmlns:inkscape="http://www.inkscape.org/namespaces/inkscape"
   id="Layer_1"
   data-name="Layer 1"
   viewBox="0 0 1252.8446 149.44273"
   version="1.1"
   sodipodi:docname="ht-banner-white.svg"
   inkscape:version="0.92.1 r15371"
   width="1252.8446"
   height="149.44273">
  <metadata
     id="metadata3763">
    <rdf:RDF>
      <cc:Work
         rdf:about="">
        <dc:format>image/svg+xml</dc:format>
        <dc:type
           rdf:resource="http://purl.org/dc/dcmitype/StillImage" />
      </cc:Work>
    </rdf:RDF>
  </metadata>
  <sodipodi:namedview
     pagecolor="#ffffff"
     bordercolor="#666666"
     borderopacity="1"
     objecttolerance="10"
     gridtolerance="10"
     guidetolerance="10"
     inkscape:pageopacity="0"
     inkscape:pageshadow="2"
     inkscape:window-width="3840"
     inkscape:window-height="2035"
     id="namedview3761"
     showgrid="false"
     inkscape:zoom="1.550264"
     inkscape:cx="621.41134"
     inkscape:cy="-286.59424"
     inkscape:window-x="-13"
     inkscape:window-y="-13"
     inkscape:window-maximized="1"
     inkscape:current-layer="Layer_1" />
  <defs
     id="defs3712">
    <style
       id="style3680">.cls-1{fill:url(#White_Black_17);}.cls-2{fill:url(#White_Black_17-2);}.cls-3{fill:url(#White_Black_17-3);}.cls-4{fill:url(#White_Black_17-4);}.cls-5{fill:url(#White_Black_17-5);}.cls-6{fill:url(#White_Black_17-6);}.cls-7{fill:url(#White_Black_17-7);}.cls-8{fill:url(#radial-gradient);}.cls-9{fill:#8c170e;}</style>
    <linearGradient
       id="White_Black_17"
       x1="73.989998"
       y1="219.92999"
       x2="73.989998"
       y2="219.92999"
       gradientUnits="userSpaceOnUse">
      <stop
         offset="0"
         stop-color="#232366"
         id="stop3682" />
      <stop
         offset="1"
         stop-color="#842d84"
         id="stop3684" />
    </linearGradient>
    <linearGradient
       id="White_Black_17-2"
       x1="209.77"
       y1="248.05"
       x2="209.77"
       y2="248.05"
       xlink:href="#White_Black_17" />
    <linearGradient
       id="White_Black_17-3"
       x1="53.490002"
       y1="186.64999"
       x2="53.490002"
       y2="248.39"
       xlink:href="#White_Black_17" />
    <linearGradient
       id="White_Black_17-4"
       x1="223.67999"
       y1="189.14999"
       x2="223.67999"
       y2="252.09"
       xlink:href="#White_Black_17" />
    <linearGradient
       id="White_Black_17-5"
       x1="115.67"
       y1="149.42999"
       x2="115.67"
       y2="211.17"
       xlink:href="#White_Black_17" />
    <linearGradient
       id="White_Black_17-6"
       x1="227.74001"
       y1="222.42999"
       x2="227.74001"
       y2="222.42999"
       xlink:href="#White_Black_17" />
    <linearGradient
       id="White_Black_17-7"
       x1="139.23"
       y1="186.64999"
       x2="139.23"
       y2="248.39"
       xlink:href="#White_Black_17" />
    <radialGradient
       id="radial-gradient"
       cx="144.21001"
       cy="196.56"
       r="51.279999"
       gradientUnits="userSpaceOnUse">
      <stop
         offset="0"
         stop-color="#fff"
         id="stop3693" />
      <stop
         offset="0.15"
         stop-color="#fff"
         stop-opacity="0.99"
         id="stop3695" />
      <stop
         offset="0.29"
         stop-color="#fff"
         stop-opacity="0.94"
         id="stop3697" />
      <stop
         offset="0.43"
         stop-color="#fff"
         stop-opacity="0.87"
         id="stop3699" />
      <stop
         offset="0.56"
         stop-color="#fff"
         stop-opacity="0.76"
         id="stop3701" />
      <stop
         offset="0.7"
         stop-color="#fff"
         stop-opacity="0.63"
         id="stop3703" />
      <stop
         offset="0.83"
         stop-color="#fff"
         stop-opacity="0.46"
         id="stop3705" />
      <stop
         offset="0.96"
         stop-color="#fff"
         stop-opacity="0.27"
         id="stop3707" />
      <stop
         offset="1"
         stop-color="#fff"
         stop-opacity="0.2"
         id="stop3709" />
    </radialGradient>
  </defs>
  <title
     id="title3714">Hourai Teahouse Final</title>
  <path
     class="cls-9"
     d="M 70.31,136.99272 V 94.512727 H 35.16 v 42.479993 q 0,10.26001 11.72,10.25001 v 1.46 H 0 v -1.46 q 11.72,0 11.72,-10.25001 V 60.772727 q 0,-10.25 -11.72,-10.25 v -1.42 h 29.3 q 5.86,0 5.86,11.72 v 32.23 h 35.15 v -32.28 q 0,-10.25 -11.72,-10.25 v -1.42 h 46.88 v 1.46 q -11.719999,0 -11.719999,10.25 v 76.169993 q 0,10.26001 11.719999,10.25001 v 1.46 H 58.59 v -1.46 q 11.72,0.01 11.72,-10.24001 z"
     id="path3732"
     inkscape:connector-curvature="0"
     style="fill:#ffffff" />
  <path
     class="cls-9"
     d="m 175.15,56.162727 a 137.52,137.52 0 0 0 12.9,-12.75 q 2.4,-3.299999 3.3,-4.649999 a 74.47,74.47 0 0 1 -15,18.899999 l 2.25,3 0.15,0.6 0.45,0.45 a 65,65 0 0 1 8.25,24 7,7 0 0 0 0.15,1.65 4.37,4.37 0 0 0 0.15,1.5 q 0.3,4.5 0.3,6.6 a 72,72 0 0 1 -0.45,8.000003 5.21,5.21 0 0 0 -0.15,1.5 3.61,3.61 0 0 1 -0.15,1 3.36,3.36 0 0 0 -0.15,0.68 60.19,60.19 0 0 1 -8.55,23.84999 l -0.75,0.75 a 0.87,0.87 0 0 1 -0.15,0.6 32.33,32.33 0 0 1 -5.25,6.3 3,3 0 0 0 -0.37,0.52 2.86,2.86 0 0 1 -0.37,0.52001 c -0.3,0 -0.55,0.2 -0.75,0.6 q -10.05,9.15 -21.75,9.15 -12.75,0 -22.65,-9.9 l -0.3,-0.45001 a 2.43,2.43 0 0 0 -0.6,-0.45 l -0.75,-0.75 q -0.3,-0.3 -2.1,-2.55 -1.8,-2.25 -2.7,-3.6 a 2.8,2.8 0 0 1 -0.15,-0.9 4.24,4.24 0 0 1 -0.6,-0.44999 63.15,63.15 0 0 1 -8.7,-27.6 2.79,2.79 0 0 1 -0.3,-1.5 v -1.000003 q 0,-0.75 -0.08,-2.18 c -0.05,-0.95 -0.08,-1.62 -0.08,-2 0,-0.2 0,-0.62 0.08,-1.27 0.08,-0.65 0.08,-1.17 0.08,-1.58 v -2.7 a 64.73,64.73 0 0 1 8.25,-27.3 l 0.45,-0.75 0.3,-0.6 a 54.44,54.44 0 0 1 4.35,-6.15 1.08,1.08 0 0 0 0.45,-0.75 3.48,3.48 0 0 0 0.9,-0.6 q 10.2,-11.55 24.15,-11.55 12.45,0 23.25,10.5 a 2.35,2.35 0 0 0 0.6,0.9 1.65,1.65 0 0 1 0.6,0.75 7.23,7.23 0 0 1 1.49,1.66 z m -49.2,37.95 v 1.35 h 2.1 l 6,-14.4 -6.15,-6.3 -0.75,3.9 0.9,-2.25 1.8,1.95 -3,7.35 -0.6,-0.15 a 2.5,2.5 0 0 1 -0.15,1.2 l 0.3,0.15 -0.3,0.75 v 3 l 4.65,-11.55 1.65,1.8 -5.59,13.2 z m 1.5,19.650003 0.45,3 6,-5.7 -6,-14.700003 h -2 v 1.05 h 0.75 l 5.55,13.500003 -1.5,1.5 -4.65,-10.8 a 26.21,26.21 0 0 0 0.15,3.15 v 0.15 a 3.7,3.7 0 0 0 0.15,1.35 l 0.3,-0.15 3.15,7.05 -2,1.95 z m 2.25,-40.200003 -1.35,-1.35 a 4.79,4.79 0 0 1 -0.3,1.35 l 6.9,6.9 14.4,-6.15 v -6.15 a 4.28,4.28 0 0 0 -1.2,-0.45 v 2 l -15.75,6.6 -2,-1.95 16.05,-6.9 a 3.46,3.46 0 0 1 -1.35,-0.45 l -6,2.7 -0.75,-2.25 3.75,-1.5 a 4,4 0 0 0 -1,-0.75 l -12.15,4.8 a 3.46,3.46 0 0 1 -0.15,0.67 3.55,3.55 0 0 0 -0.15,1 l 8.7,-3.9 1,2.4 z m 7.65,50.550003 -8.7,-3.45 a 7.83,7.83 0 0 1 0.6,1.5 l 19.8,8.1 v -12.49 l -14.4,-6 -6.45,6.3 a 5,5 0 0 1 0.3,1.2 l 0.9,-0.9 8.85,3.45 z m -8.7,-27.900003 5.85,14.100003 2.25,-2.25 -4.65,-11.850003 z m 6.3,-14.55 -6,13.8 h 3.3 l 4.65,-11.7 z m 2.1,-21.3 -5.7,2.4 q -0.3,1.05 -1.05,3 -0.75,1.95 -1,3 l 10.8,-4.5 a 9.33,9.33 0 0 1 -3.05,-3.9 z m 12.9,76.349993 16.2,-6.59999 q 0.3,-0.45 2.25,-6.15 l -18.45,7.64999 -20.4,-8.39999 q 0.3,1.2 1.05,3.3 0.75,2.1 1,2.85 z m -11.4,-15.59999 -8.55,-3.45 2.1,-2 7.5,3 z m -2.4,-66.000003 -1.5,0.75 q -1.05,1.8 -3,5.7 l 5.1,-2.1 a 11.48,11.48 0 0 1 -0.6,-4.35 z m 13.8,87.300003 12.45,-5.25001 q 1.95,-3.3 3.3,-5.85 l -15.75,6.46 -17.7,-7.35 a 21.31,21.31 0 0 0 3.15,5.85 z m -10,-24.45 -7.2,-2.85 1.8,-1.95 6.15,2.55 z m 9.75,-5.1 11.85,-4.95 4.95,-11.850003 -4.95,-11.7 v -0.15 l -0.15,-0.15 -11.7,-4.8 -12.15,5 -4.74,11.8 4.65,11.850003 z M 135,78.662727 l -1.8,-1.8 15,-6.3 v 2.55 z m 14.7,33.600003 -11.25,-4.65 -4.8,-11.550003 4.8,-11.25 11.25,-4.65 11.2,4.61 4.8,11.25 -4.8,11.550003 z m -10.65,-5.55 10.65,4.5 10.5,-4.5 4.5,-10.650003 -4.5,-10.65 -10.5,-4.35 -10.65,4.35 -4.5,10.65 z m -3.9,4.35 13.95,5.7 v -3 l -11.85,-4.8 z m 2.4,-27.900003 11.85,-4.8 v -3 l -13.8,5.7 z m -1.35,-30 a 3.61,3.61 0 0 1 -0.45,1.2 l 0.45,-0.15 a 1.16,1.16 0 0 1 0.15,-0.45 1.34,1.34 0 0 0 0.15,-0.6 v -0.3 a 0.26,0.26 0 0 1 -0.35,0.3 z m 1,84.899993 -1,-0.3 q 0.15,0.15 0.75,0.9 c 0,0.10001 0.1,0.25001 0.3,0.45001 z m 25.05,-41.999993 a 12.28,12.28 0 0 1 -3.75,9.000003 12.11,12.11 0 0 1 -8.85,3.75 12.8,12.8 0 0 1 -12.75,-12.750003 12.08,12.08 0 0 1 3.67,-9 12.46,12.46 0 0 1 9.08,-3.6 12.28,12.28 0 0 1 8.92,3.6 12.08,12.08 0 0 1 3.68,9 z M 139,138.96273 l -1.5,-0.75001 v 1.20001 a 7.69,7.69 0 0 0 1.5,1.65 z m -1.35,-42.900003 a 10.73,10.73 0 0 0 3.6,8.250003 11.43,11.43 0 0 0 8.4,3.45 11.78,11.78 0 0 0 11.7,-11.700003 11.44,11.44 0 0 0 -3.45,-8.4 10.44,10.44 0 0 0 -8.25,-3.6 10.89,10.89 0 0 0 -8.4,3.6 11.51,11.51 0 0 0 -3.6,8.4 z m 23.4,0 a 11.09,11.09 0 0 1 -3.3,8.000003 11.38,11.38 0 1 1 -8.1,-19.420003 11.27,11.27 0 0 1 11.4,11.4 z m -21.9,26.400003 8.7,3.45 v 2.7 l -9.45,-3.9 z m 9.3,-26.550003 -9.3,-2.55 a 14.78,14.78 0 0 0 -0.15,2.55 z m 0,0.15 H 139 a 16.42,16.42 0 0 0 0.15,2.55 z m -7.8,43.650003 -1.5,-0.6 v 2.25 a 12.1,12.1 0 0 0 1.5,1.35 z m 8,-44.250003 -8.25,-4.5 a 5.25,5.25 0 0 0 -0.75,2 z m 0,1.2 -9,2.25 a 14.77,14.77 0 0 0 0.75,2.400003 z m -8,22.650003 7.2,3 v 2.4 l -8.1,-3.3 z m 9.3,-69.600003 -9.9,4 a 19.17,19.17 0 0 0 -0.15,2.85 4.5,4.5 0 0 0 0.08,0.75 2.6,2.6 0 0 0 0.22,0.75 l 9.75,-4 16.2,7 a 42.08,42.08 0 0 0 -3,-6 z m -9.3,2.7 v -2.1 a 13.55,13.55 0 0 0 -0.6,2.25 z m 26.25,10.2 a 0.13,0.13 0 0 1 -0.15,-0.15 l -0.15,-0.3 -16.65,-7.05 -9.6,3.75 a 23.68,23.68 0 0 0 2.85,4.2 l 6.75,-2.7 12.3,5.1 a 30.27,30.27 0 0 0 4.65,-2.85 z m -18.3,32.55 -6.45,-6.6 a 11.11,11.11 0 0 0 -0.83,1 c -0.35,0.45 -0.58,0.73 -0.67,0.82 z m 0,1.65 -8,4.800003 q 1.2,1.5 1.5,1.8 z m -7.5,-44.4 1.35,-0.6 v -4.35 l -0.6,0.15 a 15.21,15.21 0 0 0 -0.75,1.65 z m 0.75,63.900003 6,2.4 v 2.55 l -6.75,-2.85 z m 0.6,24 -1.35,-0.6 v 3.45 l 1.35,0.9 z m 6.45,-45.600003 -4.65,-8 a 5.92,5.92 0 0 0 -1.8,1.65 z m 0,2.55 -6.45,6.300003 a 3.46,3.46 0 0 0 1.8,1.5 z m -6,-45.6 1.35,-0.6 v -4.5 l -1.35,0.75 z m 1.35,89.400003 -1.35,-0.6 v 3.75 a 3.11,3.11 0 0 0 1.35,0.9 z m 3.9,-77.700003 v 2.55 l -0.6,0.15 q 1.35,0.6 1.8,0.75 v -5.4 l -5.4,2.4 a 2.79,2.79 0 0 0 0.53,0.38 1.34,1.34 0 0 1 0.52,0.52 z m 1,31.35 -2.55,-9 a 2.61,2.61 0 0 1 -1.12,0.52 2.9,2.9 0 0 0 -1,0.38 z m 0,2.7 -4.65,7.800003 a 6.81,6.81 0 0 0 2.1,1 z m -4.5,-46.5 1.35,-0.6 v -4.35 l -0.3,0.3 -1.05,0.15 z m 1.35,90.900003 -1.35,-0.75 v 4.2 a 2.63,2.63 0 0 0 1.2,0.3 l 0.15,0.15 z m 0.3,-91.650003 1.5,-0.75 v -4.2 l -1.5,0.45 z m 1.5,92.250003 -1.5,-0.6 v 4 a 2.89,2.89 0 0 1 0.9,0.15 2.4,2.4 0 0 0 0.6,0.15 z m 1.65,-47.700003 v -9.3 a 11.08,11.08 0 0 0 -2.25,0.15 z m 0,2.7 -2.25,8.850003 a 9.21,9.21 0 0 0 2.25,0.3 z m -1.35,-48.15 1.5,-0.45 v -3.9 h -1 l -0.45,0.15 z m 1.5,93.900003 -1.5,-0.6 v 3.6 a 3.3,3.3 0 0 0 1,0.15 h 0.45 z m 0.3,-94.350003 1.5,0.45 v -4.2 l -1.5,-0.15 z m 0,45.9 2.4,-9 a 13,13 0 0 0 -2.4,-0.3 z m 0,2.7 v 9.000003 a 13.5,13.5 0 0 0 2.4,-0.15 z m 0,19.350003 14,-5.7 -2.25,-2.1 -11.7,4.8 z m 1.5,25.8 -1.5,0.6 v 3 a 2.8,2.8 0 0 0 1.5,-0.3 z m 10.2,-59.100003 2.25,-2.4 -13.8,-5.7 v 3.3 z m -10.2,-17.4 v -2.7 l 7.8,3.45 a 2.28,2.28 0 0 0 0.9,-0.3 l 0.9,-0.45 -10.8,-4.65 v 5.85 a 3.29,3.29 0 0 1 0.52,0.08 3.32,3.32 0 0 0 0.67,0.08 v -0.15 l 1.2,0.3 a 4.89,4.89 0 0 0 1.2,0.15 h 1.5 z m 13.2,14.4 5.7,-5.7 c 0,-0.7 -0.15,-1.1 -0.45,-1.2 l -13.5,-5.4 h -2.4 l 15,6.15 -1.8,1.95 -15.7,-6.49 v -1.65 h -1.2 v 6.3 z m -14.4,14.25 4.65,-8 -2.25,-0.9 z m 0,2.7 2.4,8.850003 a 9.7,9.7 0 0 0 2.25,-1.2 z m 19.35,21.000003 0.3,0.3 0.3,-1.5 -5.55,-5.4 -14.4,6 v 12.59999 l 18.61,-7.63999 a 1.89,1.89 0 0 0 0.15,-0.82 1.87,1.87 0 0 1 0.15,-0.83 l -18,7.5 v -2.55 z m -18.9,-23.700003 6.3,-6.15 a 14.32,14.32 0 0 0 -1.8,-1.65 z m 0,2.55 4.5,7.650003 a 5.27,5.27 0 0 0 1.8,-1.35 z m 0.15,-2.1 7.8,-4.5 a 9.47,9.47 0 0 0 -1.2,-2 z m 0,1.65 6.6,6.600003 a 9.36,9.36 0 0 0 1.2,-2 z m 9,-3.75 -0.9,-2.1 -7.8,4.5 z m -8.7,2.85 h 9 a 13.43,13.43 0 0 0 -0.3,-2.55 z m 0,0.15 8.7,2.55 a 18.08,18.08 0 0 0 0.3,-2.55 z m 7.8,5.100003 0.9,-2.400003 -8.7,-2.1 z m -0.75,17.25 -7,2.85 v -2.4 l 6.3,-2.55 z m 0.45,0.9 0.9,2.1 -8.4,3.75 v -2.7 z m -7.2,-48.600003 15,6.15 -1.8,2 -13.2,-5.7 z m 0.3,-21.3 1.5,0.75 v -4.2 l -1.5,-0.75 z m 1.5,92.400003 -1.5,0.6 v 3.3 a 0.87,0.87 0 0 0 0.6,-0.15 2.28,2.28 0 0 0 0.9,-0.3 z m 0.3,-91.500003 1.35,0.6 v -4.5 l -0.9,-0.15 -0.45,-0.15 z m 1.35,90.750003 -1.35,0.75 v 3.45 q 1,-0.45 1.35,-0.6 z m 0.45,-90.000003 1.35,0.6 v -4.05 a 1.42,1.42 0 0 1 -0.6,-0.37 4.34,4.34 0 0 0 -0.75,-0.52 z m 1.35,89.400003 -1.35,0.6 v 3.3 l 1.35,-0.9 z m 0.5,-88.690003 1.35,0.6 v -3.3 l -0.6,-0.6 a 3.25,3.25 0 0 0 -0.75,-0.6 z m 1.35,87.900003 -1.35,0.6 v 2.85 l 0.45,-0.45 0.9,-0.9 z m 6,-26.25 1.65,1.65 -6.9,2.85 -0.75,-2.25 z m -5.55,-61.000003 1.2,0.75 v -2.1 a 4.69,4.69 0 0 0 -0.6,-0.83 4.46,4.46 0 0 1 -0.6,-0.82 z m 1.2,86.550003 -1.2,0.45 v 2.25 a 18.13,18.13 0 0 1 1.2,-1.5 z m -0.45,-20.25 7.2,-3 1.8,2 -7.95,3.45 z m 0.75,-51.450003 9.15,3.6 a 4,4 0 0 1 -0.6,-1.65 l -6.6,-2.55 a 15.79,15.79 0 0 0 -1.95,0.59 z m 0.3,-14.1 h 0.15 l 1.35,0.6 v -0.3 c -0.1,0 -0.15,-0.1 -0.15,-0.3 l -1.35,-1.5 z m 0.6,85.499993 0.15,-0.3 -0.3,0.3 -0.45,0.30001 v 0.75 a 2.32,2.32 0 0 1 0.45,-0.6 z m 9,-43.049993 -0.15,-0.15 -5.55,-13.7 -2.25,2.1 4.8,11.7 z m -5.7,14.850003 5.7,-13.800003 h -3.15 l -4.8,11.550003 z m -1,-44.400003 5.1,2.1 q -0.3,-1.35 -1.2,-4.05 -2,1.04 -3.95,1.94 z m 8.85,29.4 v -1.2 l -2.55,-5.85 2.1,-1.05 0.15,0.45 a 19.56,19.56 0 0 0 -0.3,-3.15 l -2.3,-5.9 1.35,-1.5 a 3.3,3.3 0 0 0 -0.15,-0.83 3.18,3.18 0 0 1 -0.15,-0.82 l -5.4,5.4 6,14.4 z m 0,2.25 v -1 h -1.2 l -5.85,14.400003 5,5.1 a 1.83,1.83 0 0 1 0.15,-0.68 1.76,1.76 0 0 0 0.15,-0.52 l -1,-1.35 2.1,-5.85 0.45,-3.45 -0.3,0.6 -2,-1.05 z m -0.9,-11.4 -1.95,0.9 -2.7,-6.15 1.8,-1.65 z m -1.95,18.600003 1.8,1 -2.7,6.75 -1.8,-1.65 z M 177.3,1.2727273 a 8.54,8.54 0 0 1 1,-0.37000003 19.36,19.36 0 0 1 2.4,-0.52 19.73,19.73 0 0 1 3.38,-0.3 51.79,51.79 0 0 0 -6.83,1.18000003 z m 6.75,-1.20000003 q 8.4,-0.6 12.3,3.75000003 3.9,4.35 3.38,11.3199997 a 48.35,48.35 0 0 1 -4.28,15.530001 q 2.85,-9.3 1.65,-15.830001 A 23.21,23.21 0 0 0 192.45,4.1127273 11.33,11.33 0 0 0 184,0.06272727 Z m 11.4,30.60000073 a 34.15,34.15 0 0 1 -4.05,8.1 74.21,74.21 0 0 0 4,-8.11 z"
     id="path3734"
     inkscape:connector-curvature="0"
     style="fill:#ffffff" />
  <path
     class="cls-9"
     d="m 278.75,98.902727 v -38.13 q 0,-10.25 -11.72,-10.25 v -1.42 h 24.9 v 1.46 q -11.72,0 -11.72,10.25 v 38.09 q 0,23.150003 -6,35.229993 -7.62,15.31001 -26.22,15.31001 -23,0 -34.57,-13.62001 -9.38,-11.05999 -9.38,-33.99999 V 60.772727 q 0,-10.25 -11.72,-10.25 v -1.42 h 46.88 v 1.46 q -11.72,0 -11.72,10.25 v 58.590003 q 0,28.56 20.51,28.56 17.72,0 24.9,-14.50001 5.86,-11.77999 5.86,-34.559993 z"
     id="path3736"
     inkscape:connector-curvature="0"
     style="fill:#ffffff" />
  <path
     class="cls-9"
     d="m 297.81,49.102727 h 49.8 q 20.07,0 32,7.62 11.93,7.62 11.94,22 a 22.12,22.12 0 0 1 -6,15.1 q -6,6.740003 -16.29,10.410003 l 15.92,33.12999 a 26.31,26.31 0 0 0 4.54,7.00001 q 2.93,2.92 9.08,2.92 v 1.46 H 371 q -5.55,0 -10.36,-10.84001 l -14.5,-30.17999 h -13.19 v 29.29999 q 0,10.26001 11.72,10.25001 v 1.46 h -46.86 v -1.46 q 11.72,0 11.72,-10.25001 V 59.502727 q -0.44,-8.93 -11.72,-8.94 z m 35.16,1.46 v 55.660003 h 14.65 q 20.51,0 20.51,-27.830003 0,-27.83 -20.53,-27.83 z"
     id="path3738"
     inkscape:connector-curvature="0"
     style="fill:#ffffff" />
  <path
     class="cls-9"
     d="m 456.69,117.95273 h -33.34 l -6.54,19.87999 a 14.14,14.14 0 0 0 -0.82,4.26001 q 0,5.15 10.63,5.15 v 1.46 h -24.81 v -1.46 q 10.4,0 13.62,-10.00001 l 23.8,-72.949993 -1.24,-3.81 q -3.52,-10 -13.62,-10 v -1.38 h 28.27 q 6.3,0 9.81,10.84 l 25.2,77.339993 q 3.22,10.00001 13.77,10.00001 v 1.46 h -46.88 v -1.46 q 9.52,0 9.52,-5 a 15,15 0 0 0 -0.88,-4.39001 z m -0.48,-1.46 -16.18,-49.900003 -16.36,49.900003 z"
     id="path3740"
     inkscape:connector-curvature="0"
     style="fill:#ffffff" />
  <path
     class="cls-9"
     d="m 507.27,49.102727 h 46.88 v 1.46 q -11.72,0 -11.72,10.25 v 76.169993 q 0,10.26001 11.72,10.25001 v 1.46 h -46.88 v -1.46 q 11.72,0 11.72,-10.25001 V 60.772727 q 0,-10.25 -11.72,-10.25 z"
     id="path3742"
     inkscape:connector-curvature="0"
     style="fill:#ffffff" />
  <path
     d="m 669.33938,53.25893 -4.55479,14.81911 A 54.785808,54.785808 0 0 0 652.7454,64.07923 83.632824,83.632824 0 0 0 640.12884,63.30941 v 51.19329 q 0,20.01543 3.12206,30.64328 h -20.35756 q 3.2076,-9.58004 3.2076,-31.17788 V 63.30941 q -10.00772,0.64152 -14.8405,1.28304 a 71.935776,71.935776 0 0 0 -14.39143,3.48559 l 4.96109,-14.81911 z"
     id="path3744"
     style="fill:#ffffff;stroke-width:2.13840032"
     inkscape:connector-curvature="0" />
  <path
     d="m 735.97193,127.0765 -7.63409,18.06948 h -48.58445 q 3.2076,-10.30709 3.2076,-30.66466 v -32.076 a 129.99334,129.99334 0 0 0 -3.2076,-29.14639 h 50.46624 l -7.05672,14.81911 A 42.490008,42.490008 0 0 0 703.4041,63.24526 q -1.30443,0 -6.54351,0.19245 v 29.70238 h 30.15144 l -8.5536,14.81911 a 54.465048,54.465048 0 0 0 -21.59784,-4.76863 v 31.90493 q 16.46568,-1.17612 20.20788,-1.81764 a 60.30288,60.30288 0 0 0 18.90346,-6.20136 z"
     id="path3746"
     style="fill:#ffffff;stroke-width:2.13840032"
     inkscape:connector-curvature="0" />
  <path
     d="m 831.9647,145.14598 h -22.26074 a 56.98836,56.98836 0 0 0 -3.46421,-14.58389 q -0.91951,-2.48055 -6.20136,-14.13483 h -32.99551 q -4.10573,10.86308 -5.08939,14.07068 a 54.379512,54.379512 0 0 0 -2.73715,14.64804 H 736.5493 q 6.77872,-7.82655 17.62041,-30.4722 l 30.08729,-62.78343 30.85711,64.85767 a 156.25289,156.25289 0 0 0 16.85059,28.39796 z m -37.05847,-40.13777 -11.3549,-27.35014 -11.6329,27.35014 z"
     id="path3748"
     style="fill:#ffffff;stroke-width:2.13840032"
     inkscape:connector-curvature="0" />
  <path
     d="m 915.29819,145.14598 h -20.3576 a 68.899248,68.899248 0 0 0 3.1221,-18.19779 v -22.96641 h -39.4107 v 11.71843 a 132.5808,132.5808 0 0 0 3.2076,29.42438 h -20.35762 a 98.3664,98.3664 0 0 0 3.12206,-26.87969 V 82.04179 a 117.612,117.612 0 0 0 -3.12206,-28.78286 h 20.35762 a 91.4166,91.4166 0 0 0 -3.2076,22.32489 v 16.95752 h 39.4107 V 80.60906 a 121.2259,121.2259 0 0 0 -3.1221,-27.35013 h 20.3576 a 101.42431,101.42431 0 0 0 -3.2076,26.49477 v 34.2144 a 129.35182,129.35182 0 0 0 3.2076,31.17788 z"
     id="path3750"
     style="fill:#ffffff;stroke-width:2.13840032"
     inkscape:connector-curvature="0" />
  <path
     d="m 1023.2446,99.34145 a 46.08252,46.08252 0 0 1 -13.3222,33.63703 44.9064,44.9064 0 0 1 -33.40181,13.53607 q -20.8922,0 -34.2144,-13.47192 -13.3223,-13.47192 -13.2581,-34.42824 a 44.329032,44.329032 0 0 1 14.092,-33.6798 48.32784,48.32784 0 0 1 34.3855,-13.04424 43.259832,43.259832 0 0 1 33.01691,13.70715 47.429712,47.429712 0 0 1 12.7021,33.74395 z m -14.9688,2.673 a 42.383088,42.383088 0 0 0 -8.7033,-26.45201 30.557736,30.557736 0 0 0 -46.89511,-2.92961 33.187968,33.187968 0 0 0 -8.4253,23.26579 43.045992,43.045992 0 0 0 8.7674,27.02938 29.9376,29.9376 0 0 0 24.8483,12.44549 28.055808,28.055808 0 0 0 22.30351,-10.0291 34.706232,34.706232 0 0 0 7.9976,-23.32994 z"
     id="path3752"
     style="fill:#ffffff;stroke-width:2.13840032"
     inkscape:connector-curvature="0" />
  <path
     d="m 1115.0675,145.14598 h -15.8669 v -9.60142 a 63.489096,63.489096 0 0 1 -13.7286,8.29699 42.040944,42.040944 0 0 1 -15.8027,2.673 q -17.9626,0 -25.0193,-15.39648 -4.9611,-10.84169 -4.9611,-32.076 0,-3.84912 0.1711,-10.56369 0.171,-6.71458 0.171,-9.32343 a 108.37411,108.37411 0 0 0 -3.1648,-25.89602 h 20.3576 a 97.339968,97.339968 0 0 0 -3.2076,25.6608 v 22.66704 q 0,33.78672 22.5173,33.76533 21.2771,0 21.2771,-26.9866 V 79.02665 a 105.7225,105.7225 0 0 0 -3.1221,-25.6608 h 20.3576 a 81.2592,81.2592 0 0 0 -3.2076,24.20669 v 30.64327 q 0,16.25184 0.1283,18.60408 a 67.830048,67.830048 0 0 0 3.1007,18.32609 z"
     id="path3754"
     style="fill:#ffffff;stroke-width:2.13840032"
     inkscape:connector-curvature="0" />
  <path
     d="m 1180.5881,119.78455 a 23.800392,23.800392 0 0 1 -9.9222,20.20788 36.630792,36.630792 0 0 1 -22.1966,6.4152 38.983032,38.983032 0 0 1 -17.2355,-4.2768 v -17.66318 a 37.593072,37.593072 0 0 0 7.7838,7.82654 18.347472,18.347472 0 0 0 10.4568,3.05791 16.67952,16.67952 0 0 0 11.1196,-3.91327 12.958704,12.958704 0 0 0 4.9611,-10.43539 q 0,-6.58627 -8.7674,-13.365 l -16.3374,-12.25303 q -8.7674,-8.21146 -8.7674,-18.26194 a 22.709808,22.709808 0 0 1 8.8102,-18.77515 31.306176,31.306176 0 0 1 20.1651,-6.4152 42.01956,42.01956 0 0 1 16.2518,3.40006 v 16.44429 a 61.842528,61.842528 0 0 0 -7.5913,-6.26551 18.1764,18.1764 0 0 0 -9.4731,-2.41639 13.450536,13.450536 0 0 0 -9.2807,3.25037 11.247984,11.247984 0 0 0 -3.8491,8.87436 q 0,6.26551 8.7675,12.98008 l 16.3373,12.44549 a 26.216784,26.216784 0 0 1 8.7675,19.13868 z"
     id="path3756"
     style="fill:#ffffff;stroke-width:2.13840032"
     inkscape:connector-curvature="0" />
  <path
     d="m 1252.8446,127.0765 -7.6341,18.06948 h -48.7127 q 3.2076,-10.30709 3.2076,-30.66466 v -32.076 a 129.99334,129.99334 0 0 0 -3.2076,-29.10362 h 50.5731 l -7.0567,14.81911 a 42.490008,42.490008 0 0 0 -19.7588,-4.83279 q -1.3044,0 -6.5435,0.19246 v 29.70238 h 30.1514 l -8.5536,14.81911 a 54.465048,54.465048 0 0 0 -21.5978,-4.76863 v 31.90492 q 16.4657,-1.17612 20.2079,-1.81764 a 60.30288,60.30288 0 0 0 18.9248,-6.24412 z"
     id="path3758"
     style="fill:#ffffff;stroke-width:2.13840032"
     inkscape:connector-curvature="0" />
</svg>
