<?xml version="1.0" standalone="no"?>
<!DOCTYPE svg PUBLIC "-//W3C//DTD SVG 20010904//EN"
 "http://www.w3.org/TR/2001/REC-SVG-20010904/DTD/svg10.dtd">
<svg version="1.0" xmlns="http://www.w3.org/2000/svg"
 width="251.000000pt" height="251.000000pt" viewBox="0 0 251.000000 251.000000"
 preserveAspectRatio="xMidYMid meet">
<metadata>
Created by potrace 1.11, written by Peter Selinger 2001-2013
</metadata>
<g transform="translate(0.000000,251.000000) scale(0.100000,-0.100000)"
fill="#000000" stroke="none">
<path d="M1128 2456 c-11 -8 -18 -26 -18 -45 0 -25 -4 -31 -20 -31 -17 0 -19
-3 -11 -18 9 -16 -2 -23 -95 -60 -81 -32 -109 -40 -128 -33 -35 14 -136 5
-173 -14 -18 -9 -47 -30 -64 -47 l-31 -32 38 -18 c77 -36 109 -124 101 -275
-4 -82 -12 -119 -50 -230 -72 -208 -136 -363 -181 -433 -64 -99 -84 -132 -100
-168 -17 -37 -42 -41 -99 -17 -94 39 -125 162 -79 306 56 175 134 476 134 515
-1 52 -22 124 -51 182 -25 48 -35 56 -50 38 -8 -10 -23 -11 -54 -6 -120 21
-127 21 -127 1 0 -11 9 -21 24 -25 49 -12 129 -111 141 -177 5 -23 -68 -231
-149 -430 -62 -150 -78 -217 -78 -329 -1 -92 22 -157 101 -287 86 -142 188
-252 310 -332 21 -14 56 -49 78 -78 21 -29 56 -70 76 -92 41 -44 43 -48 25
-48 -29 0 -128 -34 -143 -49 -60 -60 105 -113 435 -140 59 -5 485 -5 530 0 19
2 71 7 115 11 44 4 89 9 100 11 10 2 37 6 60 9 83 12 181 49 190 73 9 25 -22
48 -98 71 l-73 21 44 48 c90 95 174 258 188 365 4 23 7 43 8 44 1 1 25 -13 53
-32 l51 -34 -14 52 c-15 55 -20 191 -9 229 24 79 43 106 164 236 137 148 148
162 181 230 63 129 74 229 45 417 -14 93 -19 116 -41 175 -48 125 -129 232
-209 273 -54 27 -164 29 -217 3 -55 -27 -111 -83 -148 -149 -18 -32 -50 -76
-72 -97 -49 -47 -134 -95 -143 -80 -9 14 20 107 45 148 11 18 36 40 55 49 19
9 35 20 35 24 0 11 -57 57 -94 76 -35 18 -139 25 -173 12 -18 -6 -49 2 -129
35 -98 40 -104 44 -89 60 15 15 15 16 -9 16 -23 0 -26 4 -26 33 0 26 -6 36
-25 45 -32 15 -36 15 -57 -2z m995 -240 c58 -24 143 -139 189 -256 28 -70 34
-104 43 -246 12 -180 -52 -322 -194 -427 -31 -23 -58 -44 -61 -47 -10 -11
-166 -137 -176 -143 -12 -7 -113 143 -147 218 -22 48 -79 195 -98 250 -7 22
-16 45 -20 50 -4 6 -10 24 -14 42 -6 29 1 42 73 135 112 146 139 188 163 254
30 82 68 135 114 161 46 26 82 29 128 9z"/>
</g>
</svg>
